<svg width="176" height="48" viewBox="0 0 176 48" fill="none" xmlns="http://www.w3.org/2000/svg">
<g clip-path="url(#clip0_5_2)">
<mask id="mask0_5_2" style="mask-type:luminance" maskUnits="userSpaceOnUse" x="0" y="0" width="176" height="48">
<path d="M176 0H0V48H176V0Z" fill="white"/>
</mask>
<g mask="url(#mask0_5_2)">
<path d="M15.5406 18.8856C14.846 17.4293 14.5363 15.8165 14.6416 14.2038C14.7469 12.5911 15.2636 11.0333 16.1416 9.68151C17.0196 8.32976 18.2289 7.23004 19.6523 6.48906C21.0758 5.74808 22.6648 5.39104 24.2652 5.4526C25.8659 5.51416 27.4232 5.99224 28.7868 6.8404C30.15 7.68856 31.2729 8.87799 32.0463 10.2933C32.8198 11.7085 33.2177 13.3015 33.201 14.9177C33.1844 16.5338 32.7539 18.1181 31.9514 19.5168L24.4548 32.64L26.7023 36.5688L35.3311 21.4872C37.0343 18.4346 37.4752 14.8273 36.5586 11.4484C35.642 8.0696 33.4417 5.19198 30.4352 3.44029C27.4287 1.68862 23.859 1.20427 20.5008 2.09242C17.1426 2.98057 14.2671 5.16952 12.4986 8.18404C11.5594 9.80358 10.9746 11.6072 10.7834 13.4738C10.5922 15.3403 10.7992 17.2265 11.3903 19.0056C11.9915 18.9297 12.5967 18.8912 13.2026 18.8904L15.5406 18.8856Z" fill="url(#paint0_linear_5_2)"/>
<path d="M45.7816 26.5176C44.8498 24.8671 43.5747 23.4397 42.0442 22.3339C40.5135 21.2281 38.7637 20.4701 36.915 20.112C36.6803 20.678 36.4111 21.2286 36.1088 21.7608L34.9338 23.8128C36.5373 23.9122 38.0878 24.4296 39.434 25.3142C40.7801 26.1989 41.8761 27.421 42.6146 28.8605C43.3531 30.3002 43.7089 31.9087 43.6473 33.5287C43.5857 35.1485 43.109 36.7248 42.2635 38.1031C41.418 39.4817 40.2326 40.6152 38.8234 41.3935C37.414 42.1716 35.8288 42.5676 34.2225 42.5429C32.6161 42.5182 31.0435 42.0734 29.6584 41.2524C28.2732 40.4311 27.1228 39.2614 26.3194 37.8576L18.8346 24.7776H14.3418L22.9468 39.8208C23.2426 40.3342 23.5707 40.8281 23.9291 41.2992L24.0004 41.3928C25.226 42.9847 26.7979 44.2706 28.595 45.1512C30.3919 46.032 32.3654 46.4834 34.363 46.4712C36.677 46.471 38.95 45.8561 40.9538 44.6885C42.9575 43.5209 44.6217 41.8416 45.7785 39.8196C46.9356 37.7974 47.5447 35.5037 47.5447 33.1687C47.545 30.8338 46.9359 28.5398 45.7793 26.5176H45.7816Z" fill="url(#paint1_linear_5_2)"/>
<path d="M20.9655 38.3184C20.0952 39.6554 18.9004 40.7453 17.4946 41.4845C16.0889 42.2234 14.5191 42.5873 12.9346 42.5412C11.3502 42.4949 9.80382 42.0403 8.44272 41.2205C7.08162 40.4006 5.95111 39.2431 5.15878 37.8576C4.34366 36.4325 3.91455 34.8161 3.91453 33.1704C3.91453 31.525 4.34361 29.9086 5.15871 28.4834C5.97382 27.0581 7.1462 25.8746 8.55815 25.0514C9.97007 24.2282 11.5718 23.7944 13.2025 23.7936H28.2028L30.4432 19.8672H13.2025C11.4565 19.8436 9.7232 20.1702 8.10328 20.828C6.48339 21.4859 5.00915 22.4619 3.76617 23.6995C2.52318 24.937 1.53622 26.4115 0.862573 28.037C0.188932 29.6628 -0.157959 31.4071 -0.157959 33.1692C-0.157959 34.9313 0.188932 36.6758 0.862573 38.3014C1.53622 39.9271 2.52318 41.4014 3.76617 42.6389C5.00915 43.8766 6.48339 44.8526 8.10328 45.5105C9.7232 46.1683 11.4565 46.495 13.2025 46.4712C15.091 46.4825 16.9593 46.079 18.678 45.2892C20.3967 44.4994 21.9247 43.3418 23.156 41.8968C22.7712 41.3954 22.42 40.8686 22.1047 40.32L20.9655 38.3184Z" fill="url(#paint2_linear_5_2)"/>
<path d="M79.9522 38.8848L79.2672 35.6016L78.9247 35.472C78.6678 35.6448 78.3254 35.7744 77.9401 35.7744C77.2551 35.7744 76.6557 35.3856 75.928 34.5648L69.7632 27.264L78.2397 18.0624L78.1113 17.76H73.1024L64.2406 27.6096V10.1568L63.8981 9.89761L59.5742 10.5456V39.36H64.2406V32.1888L66.3383 29.8992L72.3747 37.2432C73.659 38.8416 75.2858 39.8784 77.3407 39.8784C78.411 39.8784 79.2244 39.6192 79.7809 39.2304L79.9522 38.8848Z" fill="white"/>
<path fill-rule="evenodd" clip-rule="evenodd" d="M140.905 17.2416C147.412 17.2416 151.822 22.2528 151.822 28.56C151.822 34.8672 147.412 39.8784 140.905 39.8784C137.865 39.8784 135.297 38.6256 133.456 36.7248V39.36H129.26V10.5888L133.627 9.9408L133.927 10.1568V19.9632C135.725 18.2784 138.122 17.2416 140.905 17.2416ZM140.348 35.7744C144.373 35.7744 147.027 32.5776 147.027 28.56C147.027 24.5856 144.373 21.3456 140.348 21.3456C136.581 21.3456 133.584 23.8512 133.584 28.56C133.584 33.2688 136.581 35.7744 140.348 35.7744Z" fill="white"/>
<path fill-rule="evenodd" clip-rule="evenodd" d="M175.149 35.6448L175.834 38.8416L175.662 39.144C175.063 39.576 174.164 39.8784 173.094 39.8784C171.167 39.8784 169.755 38.8416 169.198 37.0704C167.357 38.8416 164.703 39.8784 161.877 39.8784C157.468 39.8784 153.401 37.416 153.401 32.7504C153.401 27.9552 157.682 25.752 162.948 25.752C165.259 25.752 167.058 26.184 168.599 26.7456V25.536C168.599 22.4256 165.816 20.9136 162.862 20.9136C160.422 20.9136 158.538 21.9504 157.04 23.4192H156.697L154.343 21.1728V20.8272C156.654 18.5808 159.608 17.2416 163.29 17.2416C167.914 17.2416 173.179 19.3152 173.179 25.536V33.8736C173.179 35.04 173.394 35.7744 174.164 35.7744C174.464 35.7744 174.678 35.6448 174.849 35.5152L175.149 35.6448ZM168.599 31.5408V29.9424C167.486 29.5104 165.645 28.9488 163.547 28.9488C160.165 28.9488 158.067 30.4176 158.067 32.7504C158.067 35.2128 160.379 36.4224 162.819 36.4224C165.773 36.4224 168.599 34.5648 168.599 31.5408Z" fill="white"/>
<path d="M125.049 26.3568C125.049 20.9568 121.581 17.2416 116.144 17.2416C113.276 17.2416 110.836 18.2784 109.166 19.9632C108.61 18.2352 107.283 17.2416 105.313 17.2416C104.2 17.2416 103.258 17.544 102.659 17.976L102.488 18.2784L103.173 21.4752L103.472 21.6048C103.644 21.4752 103.858 21.3456 104.157 21.3456C104.971 21.3456 105.142 22.08 105.142 23.2464V39.36H109.851V26.7456C109.851 23.4624 112.035 21.3024 115.245 21.3024C118.456 21.3024 120.383 23.4624 120.383 26.7456V39.36H125.049V26.3568Z" fill="white"/>
<path fill-rule="evenodd" clip-rule="evenodd" d="M101.324 35.6448L102.009 38.8416L101.837 39.144C101.238 39.576 100.339 39.8784 99.2687 39.8784C97.3422 39.8784 95.9294 38.8416 95.3729 37.0704C93.532 38.8416 90.8777 39.8784 88.0522 39.8784C83.6427 39.8784 79.5757 37.416 79.5757 32.7504C79.5757 27.9552 83.8568 25.752 89.1225 25.752C91.4343 25.752 93.2323 26.184 94.7735 26.7456V25.536C94.7735 22.4256 91.9908 20.9136 89.0369 20.9136C86.5967 20.9136 84.713 21.9504 83.2146 23.4192H82.8721L80.5175 21.1728V20.8272C82.8293 18.5808 85.7833 17.2416 89.465 17.2416C94.0886 17.2416 99.3543 19.3152 99.3543 25.536V33.8736C99.3543 35.04 99.5683 35.7744 100.339 35.7744C100.639 35.7744 100.853 35.6448 101.024 35.5152L101.324 35.6448ZM94.7735 31.5408V29.9424C93.6604 29.5104 91.8196 28.9488 89.7218 28.9488C86.3398 28.9488 84.2421 30.4176 84.2421 32.7504C84.2421 35.2128 86.5538 36.4224 88.9941 36.4224C91.948 36.4224 94.7735 34.5648 94.7735 31.5408Z" fill="white"/>
</g>
</g>
<defs>
<linearGradient id="paint0_linear_5_2" x1="15.386" y1="3.60244" x2="34.8434" y2="27.1922" gradientUnits="userSpaceOnUse">
<stop stop-color="#B03B83"/>
<stop offset="0.56" stop-color="#E72E6C"/>
<stop offset="1" stop-color="#FFC400"/>
</linearGradient>
<linearGradient id="paint1_linear_5_2" x1="23.9386" y1="21.7656" x2="44.893" y2="44.2734" gradientUnits="userSpaceOnUse">
<stop stop-color="#D83B83"/>
<stop offset="1" stop-color="#6F4A9E"/>
</linearGradient>
<linearGradient id="paint2_linear_5_2" x1="2.16916" y1="38.1072" x2="29.9925" y2="25.8786" gradientUnits="userSpaceOnUse">
<stop stop-color="#9C2383"/>
<stop offset="1" stop-color="#E72E6C"/>
</linearGradient>
<clipPath id="clip0_5_2">
<rect width="176" height="48" fill="white"/>
</clipPath>
</defs>
</svg>
